<?xml version="1.0" encoding="iso-8859-1"?>
<!-- Generator: Adobe Illustrator 19.0.0, SVG Export Plug-In . SVG Version: 6.00 Build 0)  -->
<svg xmlns="http://www.w3.org/2000/svg" xmlns:xlink="http://www.w3.org/1999/xlink" version="1.1" id="Capa_1" x="0px" y="0px" viewBox="0 0 512 512" style="enable-background:new 0 0 512 512;" xml:space="preserve" width="512px" height="512px">
<g>
	<g>
		<path d="M462.246,422.807c7.134-9.61,11.363-21.499,11.363-34.359c0-31.852-25.914-57.766-57.766-57.766    s-57.766,25.914-57.766,57.766c0,12.89,4.247,24.806,11.411,34.428c-28.56,12.477-48.576,40.984-48.576,74.09V512h190.062v-15.034    C510.975,463.801,490.887,435.25,462.246,422.807z" fill="#1a547d"/>
	</g>
</g>
<g>
	<g>
		<path d="M142.359,422.807c7.134-9.61,11.362-21.499,11.362-34.359c0-31.852-25.914-57.766-57.766-57.766    S38.19,356.597,38.19,388.449c0,12.89,4.247,24.806,11.411,34.428c-28.56,12.477-48.576,40.984-48.576,74.09V512h190.062v-15.034    C191.088,463.801,171.001,435.25,142.359,422.807z" fill="#1a547d"/>
	</g>
</g>
<g>
	<g>
		<path d="M77.651,0v208.616h60.14v89.47l89.469-89.47h154.081V0H77.651z M321.195,148.393H137.785v-30.068h183.411V148.393z     M321.195,88.254H137.785V58.186h183.411V88.254z" fill="#1a547d"/>
	</g>
</g>
<g>
	<g>
		<polygon points="411.409,60.139 411.409,238.684 239.715,238.684 209.644,268.755 251.777,268.755 341.248,358.226     341.248,268.755 441.481,268.755 441.481,60.139   " fill="#1a547d"/>
	</g>
</g>
<g>
</g>
<g>
</g>
<g>
</g>
<g>
</g>
<g>
</g>
<g>
</g>
<g>
</g>
<g>
</g>
<g>
</g>
<g>
</g>
<g>
</g>
<g>
</g>
<g>
</g>
<g>
</g>
<g>
</g>
</svg>
