<?xml version="1.0"?>
<svg xmlns="http://www.w3.org/2000/svg" height="512px" version="1.1" viewBox="-102 0 690 690.00083" width="512px">
<g id="surface1">
<path d="M 262.035156 340.6875 L 31.238281 340.6875 C 20.90625 340.6875 12.523438 349.0625 12.523438 359.398438 C 12.523438 369.730469 20.90625 378.113281 31.238281 378.113281 C 38.125 378.113281 43.710938 383.699219 43.710938 390.585938 C 43.710938 397.472656 38.125 403.0625 31.238281 403.0625 C 20.90625 403.0625 12.523438 411.433594 12.523438 421.777344 C 12.523438 432.105469 20.90625 440.492188 31.238281 440.492188 C 38.125 440.492188 43.710938 446.078125 43.710938 452.964844 C 43.710938 459.851562 38.125 465.4375 31.238281 465.4375 C 20.90625 465.4375 12.523438 473.8125 12.523438 484.152344 C 12.523438 494.484375 20.90625 502.863281 31.238281 502.863281 C 38.125 502.863281 43.710938 508.449219 43.710938 515.34375 C 43.710938 522.230469 38.125 527.816406 31.238281 527.816406 C 20.90625 527.816406 12.523438 536.191406 12.523438 546.53125 C 12.523438 556.863281 20.90625 565.242188 31.238281 565.242188 L 262.035156 565.242188 Z M 262.035156 340.6875 " style=" fill-rule:nonzero;fill-opacity:1;" stroke="#1a547d" fill="#1a547d"/>
<path d="M 137.28125 690 C 164.84375 690 187.183594 667.660156 187.183594 640.097656 L 187.183594 590.195312 L 87.378906 590.195312 L 87.378906 640.097656 C 87.378906 667.660156 109.71875 690 137.28125 690 Z M 137.28125 615.148438 C 151.0625 615.148438 162.230469 626.320312 162.230469 640.097656 C 162.230469 653.878906 151.0625 665.046875 137.28125 665.046875 C 123.5 665.046875 112.328125 653.878906 112.328125 640.097656 C 112.328125 626.320312 123.5 615.148438 137.28125 615.148438 Z M 137.28125 615.148438 " style=" fill-rule:nonzero;fill-opacity:1;" stroke="#1a547d" fill="#1a547d"/>
<path d="M 80.105469 239.480469 C 84.550781 241.519531 87.398438 245.964844 87.378906 250.855469 L 87.378906 315.734375 L 124.804688 315.734375 L 124.804688 253.355469 L 149.757812 253.355469 L 149.757812 315.734375 L 187.183594 315.734375 L 187.183594 250.855469 C 187.183594 245.984375 190.027344 241.550781 194.457031 239.519531 C 239.058594 219.628906 269.453125 177.222656 273.953125 128.601562 L 74.902344 128.601562 C 68.011719 128.601562 62.425781 123.011719 62.425781 116.121094 L 62.425781 0 C 20.480469 27.214844 -3.304688 75.125 0.371094 125 C 4.050781 174.867188 34.617188 218.765625 80.105469 239.535156 Z M 87.378906 164.777344 L 187.183594 164.777344 L 187.183594 189.726562 L 87.378906 189.726562 Z M 87.378906 164.777344 " style=" fill-rule:nonzero;fill-opacity:1;" stroke="#1a547d" fill="#1a547d"/>
<path d="M 212.132812 265.832031 L 212.132812 315.734375 L 257.210938 315.734375 L 240.570312 265.832031 Z M 212.132812 265.832031 " style=" fill-rule:nonzero;fill-opacity:1;" stroke="#1a547d" fill="#1a547d"/>
<path d="M 212.132812 0.0078125 L 212.132812 103.648438 L 273.953125 103.648438 C 270.207031 61.484375 247.449219 23.34375 212.132812 0.0078125 Z M 212.132812 0.0078125 " style=" fill-rule:nonzero;fill-opacity:1;" stroke="#1a547d" fill="#1a547d"/>
<path d="M 286.988281 565.242188 L 486.597656 565.242188 L 486.597656 340.6875 L 286.988281 340.6875 Z M 349.367188 477.917969 C 363.152344 477.917969 374.3125 489.089844 374.3125 502.863281 C 374.3125 516.644531 363.152344 527.816406 349.367188 527.816406 C 335.585938 527.816406 324.414062 516.644531 324.414062 502.863281 C 324.414062 489.089844 335.585938 477.917969 349.367188 477.917969 Z M 349.367188 477.917969 " style=" fill-rule:nonzero;fill-opacity:1;" stroke="#1a547d" fill="#1a547d"/>
</g>
</svg>
